# AST/ASF file generated using VICON BodyLanguage
# -----------------------------------------------
:version 1.10
:name VICON
:units
  mass 1.0
  length 0.45
  angle deg
:documentation
   .ast/.asf automatically generated from VICON data using
   VICON BodyBuilder and BodyLanguage model FoxedUp or BRILLIANT.MOD
:root
   order TX TY TZ RX RY RZ
   axis XYZ
   position 0 0 0  
   orientation 0 0 0 
:bonedata
  begin
     id 1 
     name lhipjoint
     direction 0.535335 -0.74333 0.401095 
     length 2.04549 
     axis 0 0 0  XYZ
  end
  begin
     id 2 
     name lfemur
     direction 0.34202 -0.939693 0  
     length 6.95643  
     axis 0 0 20  XYZ
    dof rx ry rz
    limits (-160.0 20.0)
           (-70.0 70.0)
           (-60.0 70.0)
  end
  begin
     id 3 
     name ltibia
     direction 0.34192 -0.939729 0   
     length 5.55969   
     axis 0 0 20   XYZ
    dof rx
    limits (-10.0 170.0)
  end
  begin
     id 4 
     name lfoot
     direction 0.216943 -0.596046 0.773088   
     length 2.27918   
     axis -90 7.62852e-016 20   XYZ
    dof rx rz
    limits (-45.0 90.0)
           (-70.0 20.0)
  end
  begin
     id 5 
     name ltoes
     direction 1.53519e-011 -4.21748e-011 1   
     length 1.05562   
     axis -90 7.62852e-016 20   XYZ
    dof rx
    limits (-90.0 20.0)
  end
  begin
     id 6 
     name rhipjoint
     direction -0.576368 -0.719173 0.38806   
     length 2.1142  
     axis 0 0 0  XYZ 
  end
  begin
     id 7 
     name rfemur
     direction -0.34202 -0.939693 0   
     length 7.07928   
     axis 0 0 -20   XYZ
    dof rx ry rz
    limits (-160.0 20.0)
           (-70.0 70.0)
           (-70.0 60.0)
  end
  begin
     id 8 
     name rtibia
     direction -0.34202 -0.939693 0   
     length 5.79974   
     axis 0 0 -20   XYZ
    dof rx
    limits (-10.0 170.0)
 end
 begin
     id 9 
     name rfoot
     direction -0.189288 -0.520065 0.832888   
     length 2.42173  
     axis -90 -7.62852e-016 -20   XYZ
    dof rx rz
    limits (-45.0 90.0)
           (-20.0 70.0)
  end
  begin
     id 10 
     name rtoes
     direction -1.53574e-011 -4.21658e-011 1   
     length 1.14469   
     axis -90 -7.62852e-016 -20   XYZ
    dof rx
    limits (-90.0 20.0)
  end
  begin
     id 11 
     name lowerback
     direction -0.00135702 0.993803 0.111144   
     length 1.91308   
     axis 0 0 0   XYZ
    dof rx ry rz
    limits (-20.0 45.0)
           (-30.0 30.0)
           (-30.0 30.0)
  end
  begin
     id 12 
     name upperback
     direction -0.0056745 0.999813 0.0184631   
     length 1.9212   
     axis 0 0 0   XYZ
    dof rx ry rz
    limits (-20.0 45.0)
           (-30.0 30.0)
           (-30.0 30.0)
  end
  begin
     id 13 
     name thorax
     direction -0.00733434 0.999426 -0.0330788   
     length 1.94196   
     axis 0 0 0   XYZ
    dof rx ry rz
    limits (-20.0 45.0)
           (-30.0 30.0)
           (-30.0 30.0)
  end
  begin
     id 14 
     name lowerneck
     direction 0.0563074 0.996944 -0.0541571   
     length 2.34257   
     axis 0 0 0   XYZ
    dof rx ry rz
    limits (-20.0 45.0)
           (-30.0 30.0)
           (-30.0 30.0)
  end
  begin
     id 15 
     name upperneck
     direction -0.0544519 0.976166 -0.210085   
     length 2.32506   
     axis 0 0 0   XYZ
    dof rx ry rz
    limits (-20.0 45.0)
           (-30.0 30.0)
           (-30.0 30.0)
  end
  begin
     id 16
     name head
     direction -0.0226035 0.997615 -0.0652205  
     length 2.3648  
     axis 0 0 0   XYZ
    dof rx ry rz
    limits (-20.0 45.0)
           (-30.0 30.0)
           (-30.0 30.0)
  end
  begin
     id 17 
     name lclavicle
     direction 0.92109 0.381297 -0.0787716  
     length 4.0487  
     axis 0 0 0   XYZ
    dof ry rz
    limits (-20.0 10.0)
           (0.0 20.0)
  end
  begin
     id 18 
     name lhumerus
     direction 1 -4.48986e-011 3.56724e-027   
     length 4.94991   
     axis 180 -30 -90   XYZ
    dof rx ry rz
    limits (-60.0 90.0)
           (-90.0 90.0)
           (-90.0 90.0)
  end
  begin
     id 19
     name lradius
     direction 1 -4.48981e-011 8.62147e-027   
     length 2.7606   
     axis 180 -30 -90   XYZ
    dof rx
    limits (-10.0 170.0)
  end
  begin
     id 20
     name lwrist
     direction 1 -4.48989e-011 1.59799e-026   
     length 1.3803   
     axis -1.17785e-014 90 90   XYZ
    dof ry
    limits (-180.0 0.0)
 end
  begin
     id 21 
     name lhand
     direction 1 -4.48896e-011 3.19599e-026   
     length 0.843936   
     axis -2.03931e-014 90 90   XYZ
    dof rx rz
    limits (-90.0 90.0)
           (-45.0 45.0)
  end
  begin
     id 22 
     name lfingers
     direction 1 -4.48887e-011 6.39197e-026   
     length 0.680403   
     axis -4.07862e-014 90 90   XYZ
    dof rx
    limits (0.0 90.0)
  end
  begin
     id 23
     name lthumb
     direction 0.707107 -6.348e-011 0.707107   
     length 0.976926   
     axis -90 45 2.85299e-015   XYZ
    dof rx rz
    limits (-45.0 45.0)
           (-45.0 45.0)
  end
  begin
     id 24 
     name rclavicle
     direction -0.951104 0.307692 -0.026953   
     length 4.21801  
     axis 0 0 0   XYZ 
    dof ry rz
    limits (-10.0 20.0)
           (-20.0 0.0)
  end
  begin
     id 25 
     name rhumerus
     direction -1 -4.4896e-011 -1.8171e-018  
     length 4.32982   
     axis 180 30 90   XYZ
    dof rx ry rz
    limits (-90.0 60.0)
           (-90.0 90.0)
           (-90.0 90.0)
  end
  begin
     id 26 
     name rradius
     direction -1 -4.48959e-011 8.25165e-027   
     length 3.20057   
     axis 180 30 90   XYZ
    dof rx
    limits (-10.0 170.0)
  end
  begin
     id 27 
     name rwrist
     direction -1 -4.48997e-011 1.59799e-026   
     length 1.60029   
     axis -1.17785e-014 -90 -90   XYZ
    dof ry
    limits (-180.0 0.0)
  end
  begin
     id 28
     name rhand
     direction -1 -4.49023e-011 3.19599e-026   
     length 0.960433   
     axis -2.03931e-014 -90 -90   XYZ
    dof rx rz
    limits (-90.0 90.0)
           (-45.0 45.0)
  end
  begin
     id 29
     name rfingers
     direction -1 -4.48802e-011 6.39197e-026   
     length 0.774326   
     axis -4.07862e-014 -90 -90   XYZ
    dof rx
    limits (0.0 90.0)
  end
  begin
     id 30
     name rthumb
     direction -0.707107 -6.34876e-011 0.707107   
     length 1.11178   
     axis -90 -45 -2.85299e-015   XYZ
    dof rx rz
    limits (-45.0 45.0)
           (-45.0 45.0)
  end
:hierarchy
  begin
    root lhipjoint rhipjoint lowerback
    lhipjoint lfemur
    lfemur ltibia
    ltibia lfoot
    lfoot ltoes
    rhipjoint rfemur
    rfemur rtibia
    rtibia rfoot
    rfoot rtoes
    lowerback upperback
    upperback thorax
    thorax lowerneck lclavicle rclavicle
    lowerneck upperneck
    upperneck head
    lclavicle lhumerus
    lhumerus lradius
    lradius lwrist
    lwrist lhand lthumb
    lhand lfingers
    rclavicle rhumerus
    rhumerus rradius
    rradius rwrist
    rwrist rhand rthumb
    rhand rfingers
end

#!OML:ASF C:\KaitlinTest1\Natural Motions\Nikki\Session 2\Nikki.ASF
:FULLY-SPECIFIED
:DEGREES
695
root 0.84842 16.5412 5.09328 -132.125 85.7929 -142.517
lowerback -9.78392 -0.413141 -0.124634
upperback -4.03359 -0.352069 -1.6335
thorax 1.28834 -0.121342 -1.65385
lowerneck -3.8812 -13.5195 -8.97189
upperneck 9.29301 45.2607 5.9865
head 124.119 73.2987 -79.0042
rclavicle -2.55935e-015 -1.27222e-014
rhumerus -21.4675 17.5464 -101.275
rradius 24.4013
rwrist 5.76407
rhand -32.4943 1.76953
rfingers 7.12502
rthumb -5.72595 -28.1331
lclavicle -2.55935e-015 -1.27222e-014
lhumerus -46.8101 21.6949 69.4368
lradius 22.161
lwrist -33.0779
lhand -36.1117 3.91795
lfingers 7.12502
lthumb -9.2176 33.6965
rfemur -17.9484 -16.9289 23.1234
rtibia 26.707
rfoot -17.0036 13.9341
rtoes -9.38264e-014
lfemur -20.4679 18.1148 -19.3114
ltibia 27.9373
lfoot -9.97383 -20.6585
ltoes -6.04305e-014
696
root 0.84028 16.5429 5.09419 -132.235 85.795 -142.636
lowerback -9.67851 -0.309255 -0.0958191
upperback -4.10096 -0.215843 -1.67352
thorax 1.16422 -0.0535605 -1.69612
lowerneck -3.74376 -13.5438 -9.08201
upperneck 9.35316 45.3057 6.03643
head 124.649 73.3059 -78.5533
rclavicle -6.5102e-015 -7.95139e-016
rhumerus -19.7288 17.2241 -100.902
rradius 23.9586
rwrist 7.2107
rhand -31.7973 1.18598
rfingers 7.12502
rthumb -5.05297 -28.7338
lclavicle -6.5102e-015 -7.95139e-016
lhumerus -47.0181 21.8532 69.0198
lradius 22.0261
lwrist -33.4166
lhand -35.6842 4.46009
lfingers 7.12502
lthumb -8.80506 34.2564
rfemur -18.0015 -17.0595 23.1345
rtibia 26.7049
rfoot -16.9778 14.0745
rtoes -4.6118e-014
lfemur -20.5067 18.1265 -19.3416
ltibia 27.9135
lfoot -9.92021 -20.6899
ltoes -2.06736e-014
697
root 0.839498 16.5368 5.09558 -137.717 85.5905 -147.911
lowerback -9.47745 -0.365889 -0.289875
upperback -4.05256 -0.276378 -1.7394
thorax 1.10318 -0.0832948 -1.66007
lowerneck -3.67514 -13.6083 -9.13234
upperneck 9.38959 45.3283 6.05551
head 124.904 73.2598 -78.319
rclavicle -1.61016e-014 -7.95139e-016
rhumerus -18.0333 17.2169 -100.703
rradius 23.4724
rwrist 7.31081
rhand -31.4851 0.974761
rfingers 7.12502
rthumb -4.75158 -28.952
lclavicle -1.61016e-014 -7.95139e-016
lhumerus -47.2773 22.102 68.5138
lradius 22.0165
lwrist -34.157
lhand -35.4322 4.52642
lfingers 7.12502
lthumb -8.56184 34.3328
rfemur -17.6985 -17.1373 22.8876
rtibia 26.7159
rfoot -17.0201 13.6807
rtoes -3.33958e-014
lfemur -20.308 18.0114 -19.458
ltibia 27.8909
lfoot -9.91025 -20.9963
ltoes -5.24792e-014
698
root 0.830755 16.5427 5.10045 -133.85 85.8845 -144.248
lowerback -9.68231 -0.0463968 -0.175644
upperback -4.07258 0.144157 -1.82125
thorax 1.20618 0.126442 -1.76631
lowerneck -3.67571 -13.7601 -9.15606
upperneck 9.30085 45.0601 5.98519
head 124.785 73.2796 -78.3973
rclavicle -7.10655e-015 1.59028e-015
rhumerus -16.0584 16.5879 -100.321
rradius 22.7676
rwrist 8.15287
rhand -31.0247 0.69299
rfingers 7.12502
rthumb -4.30697 -29.2432
lclavicle -7.10655e-015 1.59028e-015
lhumerus -47.1555 22.0434 68.3628
lradius 21.9199
lwrist -34.3098
lhand -35.4461 4.54919
lfingers 7.12502
lthumb -8.57532 34.355
rfemur -18.0456 -16.7687 22.9773
rtibia 26.7244
rfoot -16.8225 13.8119
rtoes -6.04305e-014
lfemur -20.5352 18.1525 -19.493
ltibia 27.8645
lfoot -9.83136 -20.715
ltoes -6.20208e-014
699
root 0.821643 16.5455 5.10295 -133.785 85.8105 -144.159
lowerback -9.50767 0.0662111 -0.0870214
upperback -4.10404 0.284152 -1.86905
thorax 1.08246 0.194644 -1.85114
lowerneck -3.62144 -13.8848 -9.14981
upperneck 9.21442 44.7357 5.90109
head 123.979 73.388 -79.1119
rclavicle -3.2551e-015 2.38542e-015
rhumerus -14.3167 15.8336 -100.095
rradius 22.0756
rwrist 8.88297
rhand -30.4471 0.491179
rfingers 7.12502
rthumb -3.74924 -29.4556
lclavicle -3.2551e-015 2.38542e-015
lhumerus -47.2637 22.2629 67.9058
lradius 21.7996
lwrist -34.7422
lhand -35.5513 4.21465
lfingers 7.12502
lthumb -8.67684 34.0163
rfemur -18.0597 -16.7157 23.0359
rtibia 26.7334
rfoot -16.7635 13.7395
rtoes -6.2816e-014
lfemur -20.5644 18.145 -19.4428
ltibia 27.8423
lfoot -9.75275 -20.7692
ltoes 3.49861e-014
700
root 0.812618 16.5431 5.10288 -135.485 85.7099 -145.742
lowerback -9.13642 0.121181 -0.118665
upperback -4.21437 0.355587 -1.88205
thorax 0.766817 0.229801 -1.84049
lowerneck -3.45409 -13.9204 -9.26875
upperneck 9.32269 44.8831 5.98489
head 124.916 73.3035 -78.268
rclavicle -1.73937e-015 -9.54166e-015
rhumerus -12.7793 15.0524 -99.9051
rradius 21.2672
rwrist 9.56094
rhand -29.9508 0.313272
rfingers 7.12502
rthumb -3.26994 -29.6414
lclavicle -1.73937e-015 -9.54166e-015
lhumerus -47.6063 22.2131 67.6929
lradius 22.0132
lwrist -34.5902
lhand -35.4132 4.40769
lfingers 7.12502
lthumb -8.54353 34.2148
rfemur -17.921 -16.8084 22.988
rtibia 26.6918
rfoot -16.7777 13.648
rtoes -3.89618e-014
lfemur -20.4925 18.1046 -19.4583
ltibia 27.8412
lfoot -9.7388 -20.8681
ltoes -3.81667e-014
701
root 0.802815 16.546 5.0998 -137.068 85.6592 -147.31
lowerback -8.842 0.218379 -0.139058
upperback -4.39144 0.485356 -1.89143
thorax 0.425966 0.295387 -1.82826
lowerneck -3.1825 -13.9676 -9.47655
upperneck 9.43882 44.9822 6.03574
head 125.824 73.2038 -77.3971
rclavicle -1.04859e-014 3.18055e-015
rhumerus -11.2784 13.3544 -99.6017
rradius 20.2554
rwrist 11.6082
rhand -29.0586 -0.207521
rfingers 7.12502
rthumb -2.40833 -30.1737
lclavicle -1.04859e-014 3.18055e-015
lhumerus -47.9841 22.1309 67.5202
lradius 22.1122
lwrist -34.5829
lhand -35.4097 4.51105
lfingers 7.12502
lthumb -8.54016 34.3183
rfemur -17.9018 -16.8459 22.8938
rtibia 26.6373
rfoot -16.6649 13.606
rtoes 2.38542e-015
lfemur -20.5455 18.1007 -19.5698
ltibia 27.8737
lfoot -9.75725 -20.9554
ltoes 6.99722e-014
702
root 0.790004 16.5462 5.09801 -137.568 85.4803 -147.733
lowerback -8.48097 0.299356 -0.0144371
upperback -4.48787 0.578942 -1.90911
thorax 0.131904 0.339083 -1.91092
lowerneck -3.04591 -14.0381 -9.54294
upperneck 9.43905 44.8446 6.03949
head 125.888 73.2714 -77.3552
rclavicle -2.21645e-014 8.74653e-015
rhumerus -9.63627 11.2648 -99.4552
rradius 19.0725
rwrist 13.9032
rhand -28.1209 -0.565008
rfingers 7.12502
rthumb -1.50266 -30.5395
lclavicle -2.21645e-014 8.74653e-015
lhumerus -48.1861 22.3267 67.1188
lradius 22.0823
lwrist -34.6867
lhand -35.3781 4.38734
lfingers 7.12502
lthumb -8.5097 34.1959
rfemur -17.823 -17.0067 22.9613
rtibia 26.5935
rfoot -16.6515 13.6139
rtoes 2.06736e-014
lfemur -20.5244 18.0002 -19.4873
ltibia 27.8932
lfoot -9.73474 -21.0089
ltoes -7.95139e-015
703
root 0.782109 16.5457 5.09996 -138.15 85.2793 -148.196
lowerback -7.99341 0.362298 0.019025
upperback -4.69949 0.65593 -1.85633
thorax -0.352885 0.3767 -1.87399
lowerneck -2.71301 -14.0813 -9.73074
upperneck 9.52772 44.8021 6.06235
head 126.142 73.295 -77.0932
rclavicle -6.85807e-015 2.06736e-014
rhumerus -8.37973 9.2236 -99.3262
rradius 17.9354
rwrist 16.1392
rhand -27.2619 -1.02906
rfingers 7.12502
rthumb -0.673004 -31.0077
lclavicle -6.85807e-015 2.06736e-014
lhumerus -48.6761 22.3403 66.7219
lradius 22.0391
lwrist -35.0371
lhand -35.462 4.17976
lfingers 7.12502
lthumb -8.59068 33.985
rfemur -17.6796 -16.9691 23.0115
rtibia 26.574
rfoot -16.6058 13.3916
rtoes -8.11041e-014
lfemur -20.448 17.9614 -19.3726
ltibia 27.8838
lfoot -9.68887 -21.153
ltoes -6.52014e-014
704
root 0.775459 16.5477 5.10167 -139.43 85.1116 -149.466
lowerback -7.61605 0.426839 0.0132365
upperback -4.92817 0.742575 -1.87724
thorax -0.794477 0.420461 -1.89141
lowerneck -2.39729 -14.1355 -9.8519
upperneck 9.59735 44.6966 6.11181
head 126.515 73.354 -76.7498
rclavicle 8.74653e-015 1.43125e-014
rhumerus -7.16471 7.01547 -99.2816
rradius 16.7853
rwrist 18.5016
rhand -26.1849 -1.57609
rfingers 7.12502
rthumb 0.367184 -31.5555
lclavicle 8.74653e-015 1.43125e-014
lhumerus -48.9415 21.8584 66.7648
lradius 22.099
lwrist -34.3992
lhand -35.5782 4.39134
lfingers 7.12502
lthumb -8.70274 34.1919
rfemur -17.6599 -16.7913 22.9858
rtibia 26.5433
rfoot -16.4124 13.084
rtoes -7.79236e-014
lfemur -20.5007 17.9291 -19.3867
ltibia 27.875
lfoot -9.64484 -21.3122
ltoes -1.43125e-014
705
root 0.77504 16.5467 5.10407 -141.932 85.0481 -152.011
lowerback -8.64278 0.642987 0.0390294
upperback -4.11759 1.03041 -2.12212
thorax 0.623251 0.560967 -2.11715
lowerneck -3.3088 -14.5208 -9.48698
upperneck 8.86301 43.3838 5.63605
head 123.562 73.7516 -79.4716
rclavicle 1.53313e-014 3.97569e-015
rhumerus -4.25584 4.34595 -99.1756
rradius 15.4311
rwrist 21.0458
rhand -25.4698 -1.89262
rfingers 7.12502
rthumb 1.05784 -31.8697
lclavicle 1.53313e-014 3.97569e-015
lhumerus -47.4639 22.4532 66.755
lradius 21.8513
lwrist -35.0848
lhand -35.4353 4.46136
lfingers 7.12502
lthumb -8.56484 34.2676
rfemur -17.6689 -16.5326 22.833
rtibia 26.5384
rfoot -16.3863 12.6302
rtoes 7.95139e-015
lfemur -20.5833 17.8615 -19.5568
ltibia 27.8526
lfoot -9.57155 -21.4346
ltoes 3.18055e-014
